<?xml version="1.0" standalone="no"?>
<!DOCTYPE svg PUBLIC "-//W3C//DTD SVG 20010904//EN"
 "http://www.w3.org/TR/2001/REC-SVG-20010904/DTD/svg10.dtd">
<svg version="1.0" xmlns="http://www.w3.org/2000/svg" x="0px" y="0px"
     viewBox="0 0 368.6 184.3" style="enable-background:new 0 0 184.3 184.3;" xml:space="preserve"
 preserveAspectRatio="xMidYMid meet">
<metadata>
Created by potrace 1.15, written by Peter Selinger 2001-2017
</metadata>
<g stroke="" fill="yellow" transform="translate(50,0.00) scale(0.3, .3)">
 <path d="M250 30c77 0 140 63 140 140 0 24-6 46-16 65l-111 227c-2 5-7 8-13 8s-11-3-13-8l-111-227c-10-19-16-41-16-65 0-77 63-140 140-140z"/>
  <circle stroke="" fill="" cx="250" cy="170" r="100" />
<g transform="translate(155.000000,220.000000) scale(0.020000,-0.020000)"
fill="#000000" stroke="none">
<path d="M3521 6179 c-78 -39 -210 -141 -219 -169 -4 -11 2 -10 19 5 17 14 16
10 -5 -13 -32 -34 -48 -44 -25 -14 11 14 10 13 -9 -2 -23 -20 -31 -42 -9 -30
7 4 9 3 4 -2 -5 -5 -14 -9 -19 -9 -6 0 -13 -6 -16 -14 -3 -9 0 -11 8 -6 9 5
11 4 6 -4 -4 -6 -12 -9 -17 -5 -12 7 -64 -107 -84 -183 -19 -73 -19 -220 0
-301 17 -71 81 -206 95 -197 5 3 12 0 16 -6 5 -8 3 -9 -6 -4 -8 5 -11 3 -8 -6
3 -8 10 -14 16 -14 5 0 14 -4 19 -9 5 -5 3 -6 -4 -2 -7 4 -13 3 -13 -2 0 -16
154 -156 198 -180 61 -34 52 -21 -15 21 -32 20 -83 62 -113 93 -55 58 -55 58
17 -8 124 -115 282 -178 443 -178 146 0 298 51 400 135 42 35 43 35 10 4 -19
-19 -46 -42 -60 -52 -14 -10 -18 -15 -10 -11 38 18 119 87 113 98 -3 6 -2 8 2
3 5 -4 19 3 32 15 27 25 31 47 6 27 -15 -11 -14 -10 1 9 21 24 31 29 21 10 -4
-7 5 1 19 17 14 17 24 36 21 43 -3 7 0 10 5 7 12 -7 62 91 84 163 23 79 30
190 17 266 -14 77 -49 178 -60 172 -4 -3 -7 5 -7 17 1 13 -4 21 -12 19 -8 -1
-11 2 -7 8 8 13 -13 52 -25 45 -5 -3 -12 0 -16 6 -5 8 -3 9 6 4 8 -5 11 -3 8
6 -3 8 -10 14 -16 14 -6 0 -17 7 -24 15 -11 12 -11 12 5 1 9 -7 17 -9 17 -4 0
27 -215 203 -247 203 -4 0 19 -17 52 -38 33 -21 85 -62 115 -91 l55 -53 -55
47 c-73 64 -141 106 -220 138 -36 15 -59 27 -52 27 7 0 29 -7 49 -15 20 -8 38
-14 40 -11 2 2 -13 10 -34 18 -29 12 -85 15 -236 16 l-198 0 -78 -39z"/>
<path d="M5604 6198 c-27 -11 -53 -24 -59 -29 -5 -5 19 2 53 16 34 14 67 25
74 25 7 -1 -15 -12 -49 -25 -76 -29 -158 -81 -226 -143 l-52 -46 40 42 c22 24
64 59 93 79 58 40 69 54 21 26 -40 -23 -179 -152 -179 -165 0 -6 8 -4 18 3 15
13 16 12 3 -3 -7 -10 -17 -16 -21 -13 -5 3 -16 -5 -24 -17 -19 -27 -21 -42 -3
-32 7 4 9 3 4 -2 -5 -5 -14 -9 -20 -9 -17 0 -75 -147 -87 -218 -14 -85 -12
-150 5 -232 17 -78 90 -240 104 -231 5 4 13 1 17 -5 4 -8 3 -9 -4 -5 -18 11
-14 -10 5 -25 15 -12 16 -12 8 1 -4 8 4 4 18 -9 15 -14 27 -27 27 -29 0 -3 -9
3 -20 13 -11 10 -20 13 -20 7 0 -28 228 -203 264 -202 6 0 -15 15 -47 32 -31
17 -74 46 -95 65 -37 34 -37 34 13 -3 63 -47 157 -90 238 -109 80 -19 217 -19
292 0 95 24 214 88 291 155 l69 62 -68 -65 c-41 -40 -97 -80 -142 -103 -40
-21 -72 -40 -70 -42 2 -2 36 13 75 34 69 36 230 174 230 196 0 6 -8 4 -17 -3
-16 -13 -17 -12 -5 3 8 10 19 16 24 15 6 -1 13 4 16 12 3 9 0 11 -8 6 -9 -5
-11 -4 -6 4 4 6 12 9 17 5 11 -6 75 125 84 171 3 17 -3 7 -14 -21 -20 -55 -49
-114 -56 -114 -2 0 7 24 20 53 69 150 73 331 11 502 -5 13 -2 11 8 -5 21 -35
20 -20 -4 35 -11 25 -24 44 -29 40 -5 -3 -13 0 -17 6 -4 8 -3 9 4 5 15 -9 15
-1 1 25 -5 11 -14 17 -18 14 -5 -2 -15 3 -22 13 -13 15 -12 16 4 3 28 -22 20
3 -10 30 -21 18 -24 19 -13 4 8 -11 -14 7 -48 40 -34 33 -62 62 -62 64 0 3 23
-17 50 -44 28 -27 50 -44 50 -38 0 22 -136 125 -215 163 l-80 39 -196 -1
c-168 -1 -202 -4 -245 -20z"/>
<path d="M2490 5529 c-30 -4 -73 -14 -95 -22 -49 -17 -1573 -838 -1631 -878
-46 -32 -154 -138 -154 -152 0 -5 8 -3 18 4 15 13 16 12 3 -3 -7 -10 -17 -15
-22 -12 -14 9 -77 -134 -94 -211 -12 -60 -15 -266 -15 -1401 0 -919 3 -1349
11 -1390 13 -69 74 -208 88 -200 5 4 13 1 17 -5 4 -8 3 -9 -4 -5 -7 4 -12 3
-12 -2 0 -12 119 -125 150 -143 22 -12 -22 -15 -365 -19 l-390 -5 415 -2 415
-2 -56 30 c-31 17 -78 54 -105 82 l-49 51 56 -51 c52 -48 133 -96 189 -114 14
-4 -174 -8 -417 -8 l-443 -1 0 -535 0 -535 4800 0 4800 0 0 535 0 535 -417 0
c-353 1 -412 3 -382 14 20 7 57 24 83 39 25 14 44 22 41 16 -4 -5 -27 -20 -53
-34 l-47 -24 390 2 390 2 -365 5 c-321 4 -362 7 -340 19 31 18 150 131 150
143 0 5 -5 6 -12 2 -7 -4 -8 -3 -4 5 4 6 11 9 16 6 16 -10 68 107 84 188 14
67 16 232 16 1399 -1 1048 -3 1337 -14 1391 -7 37 -17 71 -21 75 -4 4 -5 -4
-2 -18 26 -99 28 -207 25 -1490 l-3 -1345 -22 -65 c-12 -36 -29 -74 -37 -85
-8 -11 -4 7 9 40 13 33 29 89 35 125 8 46 10 457 8 1410 -3 1235 -5 1349 -21
1400 -20 64 -20 70 -6 50 17 -25 0 29 -27 82 -28 55 -130 168 -188 207 -93 63
-1604 870 -1661 886 -197 58 -439 -20 -627 -203 -46 -45 -67 -79 -30 -51 14
11 13 10 -2 -9 -21 -24 -31 -29 -20 -9 4 6 -3 3 -15 -8 -33 -29 -100 -174
-105 -226 -2 -24 -2 -35 1 -24 9 42 36 120 44 130 5 5 -1 -17 -13 -50 -22 -59
-23 -67 -28 -705 l-5 -645 -5 620 -5 620 -3 -628 c-2 -500 1 -627 11 -621 6 4
-4 -9 -22 -29 -43 -46 -56 -49 -15 -4 16 17 7 12 -19 -13 -45 -42 -66 -77 -29
-49 9 7 -3 -8 -28 -34 -50 -54 -69 -64 -24 -14 16 18 -12 -10 -63 -62 -51 -53
-93 -100 -93 -105 0 -5 7 -3 15 4 33 27 12 2 -32 -40 -38 -35 -41 -37 -13 -7
18 20 31 37 28 37 -8 0 -278 -297 -278 -305 0 -4 8 -1 18 6 9 7 6 1 -7 -14
-27 -30 -41 -37 -20 -9 11 14 10 13 -9 -2 -23 -20 -31 -43 -10 -30 7 4 8 3 4
-5 -4 -6 -12 -9 -17 -5 -5 3 -19 -16 -32 -43 -51 -112 -16 -254 85 -349 105
-98 227 -123 341 -71 56 25 197 147 197 170 0 5 -8 3 -17 -4 -10 -7 2 8 27 34
24 26 46 47 49 47 3 0 -11 -17 -29 -38 -20 -20 -12 -15 18 13 49 47 72 83 35
54 -10 -7 2 8 27 34 50 53 69 64 24 14 -16 -18 12 10 63 62 85 88 118 132 76
100 -10 -7 2 8 27 34 24 26 46 47 49 47 3 0 -11 -17 -29 -37 -28 -30 -25 -28
13 7 44 42 62 70 35 54 -7 -4 7 14 32 40 53 55 68 62 20 8 -19 -21 -10 -13 20
18 117 118 199 219 209 257 6 22 11 171 11 351 l1 312 22 -11 c145 -76 975
-524 982 -532 6 -5 -18 5 -52 22 -100 50 -73 28 37 -30 l100 -53 0 -1014 c0
-873 2 -1022 15 -1080 17 -75 65 -177 82 -177 6 0 15 -4 20 -9 5 -5 3 -6 -4
-2 -50 29 75 -104 137 -146 24 -16 -10 -17 -583 -17 l-607 -1 -330 165 c-181
91 -333 165 -337 164 -5 0 143 -76 327 -169 l335 -169 635 0 635 0 -56 30
c-31 17 -78 54 -105 82 l-49 51 56 -51 c52 -48 133 -96 189 -114 14 -4 -273
-8 -637 -8 l-663 -1 -354 177 c-195 97 -353 180 -351 183 2 3 -23 6 -54 8 -48
2 -63 -1 -96 -24 -22 -14 -33 -19 -25 -10 21 27 65 46 107 48 l38 1 -34 4
c-18 3 -47 -1 -63 -8 -26 -11 -598 -637 -598 -655 0 -3 8 0 18 7 9 7 1 -4 -17
-24 -19 -20 -37 -37 -40 -37 -2 0 6 11 19 25 13 14 21 25 17 25 -8 0 -247
-266 -247 -275 0 -4 8 -1 18 6 9 7 -1 -6 -23 -29 -46 -49 -62 -57 -19 -10 l29
33 -28 -25 c-15 -13 -62 -64 -104 -112 l-77 -88 -89 0 c-67 0 -88 3 -84 13 3
6 53 128 111 271 58 142 106 261 106 264 0 3 -7 -3 -16 -14 -14 -18 -15 -18
-4 4 6 12 14 22 19 22 12 0 93 199 86 211 -4 5 -117 10 -263 11 l-257 2 255 6
255 6 -242 2 -243 2 0 398 0 398 78 13 c143 24 278 86 375 171 37 32 53 65 20
39 -10 -7 -7 -1 6 14 27 30 41 37 20 10 -11 -15 -10 -14 9 1 23 20 31 42 10
30 -8 -4 -10 -3 -5 2 5 5 14 9 19 9 6 0 13 6 16 14 3 9 0 11 -8 6 -9 -5 -11
-4 -6 4 4 6 12 9 17 5 20 -12 106 224 96 265 -3 11 -5 9 -6 -6 -1 -27 -51
-186 -56 -181 -2 2 6 37 19 78 22 70 46 216 46 284 l0 29 -97 -6 c-162 -9
-325 -62 -423 -136 -35 -26 -40 -28 -21 -8 34 37 144 92 242 121 46 14 77 25
68 25 -64 3 -255 -84 -324 -145 -22 -20 -34 -33 -26 -28 10 5 12 3 7 -5 -5 -7
-11 -10 -14 -7 -7 7 -32 -13 -32 -26 0 -5 6 -6 13 -2 6 4 4 -2 -7 -14 -10 -12
-23 -19 -27 -16 -5 3 -9 182 -9 399 l0 393 71 12 c39 7 68 14 66 17 -3 2 -34
-1 -70 -7 -37 -7 -72 -10 -79 -8 -7 3 14 8 47 12 87 11 220 52 289 89 33 18
87 57 121 86 l60 55 -48 -50 c-58 -62 -135 -109 -235 -145 -43 -15 -72 -28
-65 -28 22 -1 139 45 189 74 50 29 174 141 174 157 0 5 -4 6 -10 3 -16 -10
-11 1 7 16 15 12 16 12 8 -1 -7 -12 -6 -13 6 -3 22 18 85 157 104 227 17 67
36 205 34 251 -1 16 -7 -18 -14 -76 -7 -59 -21 -136 -29 -170 -17 -64 -70
-189 -81 -189 -3 0 6 23 21 52 35 68 70 212 79 321 l7 87 -75 0 c-184 0 -367
-64 -493 -172 -38 -32 -42 -34 -19 -9 95 104 275 175 480 192 l100 8 -105 -4
c-128 -5 -209 -24 -316 -76 -76 -37 -204 -138 -204 -160 0 -6 5 -7 11 -3 7 4
1 -7 -12 -25 -12 -17 -26 -31 -31 -31 -4 0 -8 128 -8 284 0 156 -3 293 -6 303
-5 15 -4 15 5 3 7 -10 11 -112 11 -300 0 -157 4 -280 8 -273 4 6 5 140 2 297
-5 263 -6 287 -24 303 -13 12 -16 13 -10 3 4 -8 -9 -1 -29 17 -62 54 -145 53
-197 -2 -13 -13 -27 -22 -31 -19 -25 15 -29 -74 -29 -576 0 -291 -4 -531 -9
-534 -4 -3 -19 7 -32 22 -13 14 -16 20 -6 13 9 -7 17 -9 17 -3 0 15 -26 33
-35 24 -5 -4 -5 -2 -2 4 9 16 -84 86 -163 123 -93 44 -211 72 -320 76 l-95 4
94 -9 c186 -18 379 -88 446 -161 l30 -33 -39 33 c-91 77 -269 137 -438 148
l-98 6 0 -29 c0 -68 24 -214 46 -284 13 -41 21 -76 19 -78 -10 -10 -57 174
-70 273 -13 98 -14 101 -9 30 3 -44 12 -114 20 -155 18 -86 74 -225 91 -225 6
0 15 -4 20 -9 5 -5 2 -6 -6 -1 -9 5 -12 3 -9 -6 3 -8 10 -14 15 -14 6 0 15 -4
20 -9 5 -5 3 -6 -4 -2 -19 11 -16 -9 4 -25 15 -12 16 -12 8 1 -4 8 4 4 18 -9
15 -14 27 -27 27 -29 0 -3 -9 3 -20 13 -30 27 -24 6 7 -27 29 -31 54 -39 32
-10 -8 9 2 3 22 -14 84 -72 232 -131 384 -153 37 -5 48 -9 28 -10 -87 -3 -266
54 -357 114 -37 24 -62 38 -56 30 44 -53 211 -124 345 -146 l75 -13 0 -392 c0
-330 -2 -392 -14 -390 -8 1 -40 26 -73 57 -59 54 -145 103 -237 134 -58 19
-221 45 -285 45 l-43 0 6 -88 c8 -101 36 -227 65 -294 11 -27 18 -48 15 -48
-8 0 -43 88 -60 153 -9 34 -22 109 -29 167 l-14 105 5 -85 c3 -47 14 -122 25
-168 21 -93 83 -237 98 -228 5 4 13 1 17 -5 4 -8 3 -9 -4 -5 -18 11 -14 -10 5
-25 15 -12 16 -12 8 1 -8 13 -7 13 8 1 18 -15 23 -26 7 -16 -5 3 -10 2 -10 -4
0 -19 123 -120 188 -154 82 -42 152 -66 245 -81 l72 -12 3 -132 3 -132 -243
-2 -243 -2 255 -6 255 -6 -257 -2 c-148 -1 -259 -6 -263 -11 -3 -6 46 -135
109 -288 63 -153 126 -308 141 -345 15 -38 31 -68 36 -68 4 0 13 -10 19 -22
11 -23 11 -23 -6 -3 l-17 20 8 -20 c4 -11 9 -26 12 -32 4 -10 -17 -13 -84 -13
l-89 0 -77 88 c-42 48 -89 99 -104 112 -28 25 -28 25 2 -10 29 -33 28 -33 -13
5 -40 37 -59 61 -27 35 8 -7 15 -9 15 -4 0 5 -38 48 -83 95 -45 47 -71 72 -57
55 19 -24 15 -22 -18 9 -40 37 -59 61 -27 35 8 -7 15 -9 15 -5 0 9 -239 275
-247 275 -4 0 4 -12 18 -27 15 -18 11 -16 -14 6 -36 34 -52 56 -22 31 45 -37
-6 24 -185 224 -115 128 -212 229 -229 235 -16 7 -44 11 -62 8 l-34 -4 38 -1
c42 -2 86 -21 107 -48 8 -9 -3 -5 -24 10 -70 47 -78 45 -486 -159 l-370 -185
-638 0 c-532 1 -631 3 -601 14 20 7 57 24 82 39 53 29 64 27 14 -3 -17 -11
-27 -20 -22 -20 6 0 22 7 35 16 56 37 178 169 128 138 -7 -4 -8 -3 -4 5 4 6
12 9 17 5 14 -8 75 131 88 200 8 41 11 382 11 1065 l0 1006 155 83 c85 46 155
86 155 88 0 6 -30 -10 -193 -98 -71 -39 -130 -68 -132 -66 -3 3 506 279 986
536 l118 63 1 -322 c0 -288 2 -327 19 -363 10 -23 26 -48 37 -56 18 -14 18
-14 4 5 -11 15 -7 14 13 -4 28 -25 38 -43 12 -21 -8 7 -15 9 -15 6 0 -9 280
-316 288 -316 3 0 -10 17 -28 38 -28 29 -25 27 13 -8 44 -42 65 -67 32 -40 -8
7 -15 9 -15 4 1 -5 42 -52 93 -105 51 -52 79 -80 63 -62 -45 50 -26 39 24 -14
25 -26 37 -41 28 -34 -38 29 -15 -7 34 -54 30 -28 38 -33 18 -12 -18 20 -32
37 -29 37 3 0 25 -21 49 -47 25 -26 37 -41 28 -34 -42 32 -13 -10 50 -70 88
-87 118 -106 191 -125 99 -25 197 5 287 88 40 37 60 69 32 52 -7 -4 -8 -3 -4
5 4 6 11 9 16 6 5 -3 22 18 37 47 35 70 38 169 5 241 -12 27 -26 46 -31 43 -5
-4 -13 -1 -17 5 -4 8 -3 9 4 5 23 -14 12 11 -15 35 l-28 24 20 -25 20 -25 -28
24 c-27 24 -36 38 -17 26 29 -18 0 20 -78 101 -48 49 -74 74 -57 55 25 -30 22
-29 -18 9 -44 42 -65 67 -32 40 8 -7 15 -9 15 -4 -1 5 -42 52 -93 105 -51 52
-79 79 -62 60 25 -30 22 -28 -18 9 -44 42 -65 67 -32 40 8 -7 15 -8 15 -3 0 5
-24 31 -52 58 -44 42 -47 44 -18 10 35 -40 35 -40 -13 5 -44 42 -65 67 -32 40
34 -28 12 9 -27 45 -31 29 -36 32 -18 10 l24 -30 -32 30 -32 30 -3 645 c-2
574 -4 650 -19 695 -22 64 -16 70 8 8 17 -44 19 -96 21 -697 2 -358 6 -652 9
-655 3 -3 4 289 2 649 l-3 655 -35 85 c-19 47 -40 85 -47 85 -6 0 -15 4 -20 9
-5 5 -2 6 6 1 9 -5 12 -3 9 6 -3 8 -10 14 -16 14 -5 0 -14 4 -19 9 -5 5 -3 6
5 2 18 -11 15 9 -5 25 -15 12 -16 12 -8 -1 5 -9 0 -8 -13 4 -25 21 -31 36 -7
16 8 -7 15 -8 15 -3 0 13 -93 99 -155 144 -138 100 -310 148 -455 128z m260
-37 c72 -25 149 -64 180 -92 l25 -22 -32 21 c-51 34 -153 79 -218 96 -78 20
-216 19 -286 -1 -47 -14 -1564 -823 -1644 -877 -16 -11 -55 -43 -85 -71 l-55
-51 45 48 c25 27 63 61 85 76 62 43 1595 867 1640 881 95 31 244 27 345 -8z
m4496 8 c44 -14 1577 -838 1639 -881 22 -15 60 -49 85 -75 44 -47 43 -47 -15
7 -33 30 -76 64 -95 76 -139 84 -1589 855 -1631 867 -67 20 -207 21 -284 1
-92 -23 -212 -87 -295 -156 -41 -34 -64 -50 -50 -35 65 72 199 155 310 191
100 33 243 35 336 5z m-6695 -1182 l-26 -73 0 -1370 c0 -753 3 -1392 7 -1420
6 -43 5 -47 -5 -25 -9 19 -13 357 -15 1387 -3 1438 -3 1430 42 1536 26 62 24
41 -3 -35z m937 -1998 c-2 -678 -6 -870 -16 -890 l-13 -25 8 25 c4 14 10 493
13 1065 2 572 6 961 8 865 1 -96 1 -564 0 -1040z m6703 -910 c29 -80 31 -85
15 -58 -45 77 -46 94 -44 1168 l3 1015 5 -1040 c4 -927 7 -1045 21 -1085z"/>
<path d="M2720 1255 l-325 -164 -604 0 c-332 0 -606 -3 -609 -6 -3 -3 269 -5
604 -4 l609 0 335 169 c184 93 331 169 325 169 -5 0 -156 -74 -335 -164z"/>
</g>
</g>
</svg>
