<?xml version="1.0" standalone="no"?>
<!DOCTYPE svg PUBLIC "-//W3C//DTD SVG 20010904//EN"
 "http://www.w3.org/TR/2001/REC-SVG-20010904/DTD/svg10.dtd">
<svg version="1.0" xmlns="http://www.w3.org/2000/svg" x="0px" y="0px"
     viewBox="0 0 368.6 184.3" style="enable-background:new 0 0 184.3 184.3;" xml:space="preserve"
 preserveAspectRatio="xMidYMid meet">
<metadata>
Created by potrace 1.15, written by Peter Selinger 2001-2017
</metadata>
<g stroke="" fill="yellow" transform="translate(50,0.00) scale(0.3, .3)">
 <path d="M250 30c77 0 140 63 140 140 0 24-6 46-16 65l-111 227c-2 5-7 8-13 8s-11-3-13-8l-111-227c-10-19-16-41-16-65 0-77 63-140 140-140z"/>
  <circle stroke="" fill="" cx="250" cy="170" r="100" />
<g transform="translate(150.000000,260.000000) scale(0.100000,-0.100000)"
fill="#000000" stroke="none">
<path d="M1060 1980 c-14 -26 2 -58 35 -66 20 -5 26 -16 36 -62 6 -31 13 -62
16 -68 3 -9 -6 -9 -35 -1 -49 13 -87 3 -122 -32 -81 -80 -18 -219 97 -214 25
1 50 6 56 12 17 17 27 13 27 -9 0 -18 -7 -20 -88 -20 -66 0 -96 -5 -122 -18
-35 -20 -52 -56 -43 -91 5 -20 6 -20 35 2 23 17 43 22 93 22 54 0 69 -4 106
-30 24 -17 52 -49 65 -74 l22 -45 14 45 c26 88 16 206 -36 429 -27 113 -53
213 -58 223 -13 25 -84 24 -98 -3z"/>
<path d="M500 1633 c-28 -10 -50 -36 -50 -58 0 -24 38 -65 61 -65 10 0 20 -24
32 -82 9 -45 16 -83 14 -84 -2 -2 -19 1 -38 6 -47 14 -104 3 -140 -27 -86 -72
-79 -198 14 -267 35 -26 122 -28 160 -3 35 23 37 22 37 -14 l0 -30 -66 3 c-73
3 -83 -4 -55 -41 l18 -24 47 18 c34 13 60 16 100 11 l55 -6 6 43 c8 55 -12
167 -72 407 -53 209 -68 233 -123 213z"/>
<path d="M713 1595 c-42 -18 -73 -69 -73 -119 0 -31 7 -45 39 -77 35 -35 44
-39 88 -39 67 0 113 31 131 87 12 38 11 46 -7 88 -30 68 -103 93 -178 60z"/>
<path d="M1364 1581 c-53 -32 -74 -68 -74 -124 0 -91 58 -147 153 -147 110 0
183 125 127 218 -42 68 -139 94 -206 53z"/>
<path d="M1645 1493 c-39 -21 -46 -33 -39 -63 8 -35 42 -68 73 -72 24 -3 27
-9 48 -107 13 -58 21 -107 18 -109 -3 -3 -16 0 -30 6 -14 7 -47 12 -72 12
-133 0 -226 -126 -189 -254 35 -119 171 -172 289 -112 l47 23 0 -41 0 -41
-132 0 c-73 0 -150 -4 -170 -8 -50 -10 -96 -51 -103 -90 l-6 -32 -147 0 c-176
0 -212 -6 -257 -47 -31 -26 -35 -36 -35 -77 0 -25 16 -109 35 -186 39 -160 49
-174 143 -202 90 -27 156 -23 234 15 65 31 68 35 83 84 8 28 15 58 15 65 0 18
7 17 55 -11 97 -57 204 -58 296 -3 52 31 54 34 80 118 69 216 72 294 19 564
-35 175 -134 550 -151 571 -15 19 -67 17 -104 -3z"/>
<path d="M961 1398 c-53 -36 -74 -71 -79 -132 -3 -43 0 -62 18 -93 57 -100
247 -111 280 -15 5 15 16 40 25 55 29 54 12 119 -44 172 -27 25 -41 30 -99 33
-57 3 -72 0 -101 -20z"/>
<path d="M682 1333 c-13 -3 -22 -10 -19 -16 2 -7 15 -61 27 -122 13 -60 27
-114 31 -119 5 -6 18 -1 32 12 28 26 88 52 122 52 l26 0 -18 33 c-15 29 -22
109 -12 147 3 12 -11 15 -81 16 -47 1 -95 0 -108 -3z"/>
<path d="M1314 1289 c-72 -21 -133 -121 -120 -195 6 -27 12 -33 43 -39 54 -10
85 -28 127 -75 42 -47 66 -47 66 0 0 50 27 102 76 146 46 40 46 41 31 70 -43
82 -132 120 -223 93z"/>
<path d="M785 1097 c-22 -13 -49 -40 -62 -62 -23 -40 -30 -85 -15 -85 23 0 84
-78 98 -126 13 -46 18 -53 47 -58 32 -6 77 3 114 22 15 8 22 25 26 65 5 51 18
85 49 129 10 14 9 24 -7 54 -43 79 -165 109 -250 61z"/>
<path d="M215 1041 c-162 -74 -124 -317 53 -338 28 -3 65 0 86 7 31 10 36 16
36 43 0 51 18 102 50 142 17 21 30 41 30 45 0 4 -10 22 -23 41 -49 73 -148 99
-232 60z"/>
<path d="M1112 1019 c-26 -13 -55 -39 -70 -62 -23 -34 -27 -51 -27 -112 0 -62
4 -77 28 -112 39 -56 91 -83 161 -83 71 0 113 17 153 63 36 42 47 85 41 162
-11 130 -161 206 -286 144z"/>
<path d="M514 946 c-70 -31 -122 -137 -109 -217 28 -165 265 -216 361 -78 40
58 46 150 13 208 -36 64 -89 95 -168 98 -41 2 -78 -2 -97 -11z"/>
<path d="M1417 858 c6 -78 -34 -152 -105 -194 -57 -34 -53 -44 17 -44 33 0 38
4 50 35 16 46 56 73 132 88 l63 13 -36 21 c-38 22 -98 96 -98 120 0 7 -6 13
-13 13 -10 0 -13 -13 -10 -52z"/>
<path d="M858 732 c-42 -3 -47 -6 -53 -31 -9 -40 -67 -105 -115 -129 l-40 -20
77 -11 c97 -14 142 -37 168 -84 18 -32 18 -42 7 -105 -6 -38 -15 -77 -18 -87
-7 -16 -3 -17 35 -12 24 3 45 7 47 10 2 2 -8 54 -22 115 -23 97 -25 115 -14
142 20 47 69 79 141 92 96 16 98 17 54 37 -22 10 -51 30 -64 45 -13 14 -38 28
-55 30 -59 9 -101 11 -148 8z"/>
<path d="M190 663 c-14 -2 -43 -10 -66 -19 -74 -27 -80 -79 -31 -279 31 -122
34 -130 65 -148 23 -14 60 -21 122 -25 l88 -5 -25 103 c-29 119 -25 156 17
199 28 28 63 40 164 56 l40 7 -40 17 c-21 10 -56 37 -76 59 l-38 42 -97 -1
c-54 -1 -109 -4 -123 -6z"/>
<path d="M460 521 c-53 -11 -100 -39 -112 -67 -14 -30 -2 -126 33 -274 34
-148 77 -180 240 -180 90 0 146 19 187 63 21 22 68 199 86 322 8 52 -20 100
-72 122 -41 18 -297 28 -362 14z"/>
</g>
</g>
</svg>
