<?xml version="1.0" standalone="no"?>
<!DOCTYPE svg PUBLIC "-//W3C//DTD SVG 20010904//EN"
 "http://www.w3.org/TR/2001/REC-SVG-20010904/DTD/svg10.dtd">
<svg version="1.0" xmlns="http://www.w3.org/2000/svg" x="0px" y="0px"
     viewBox="0 0 368.6 184.3" style="enable-background:new 0 0 184.3 184.3;" xml:space="preserve"
 preserveAspectRatio="xMidYMid meet">
<metadata>
Created by potrace 1.15, written by Peter Selinger 2001-2017
</metadata>
<g stroke="" fill="yellow" transform="translate(50,0.00) scale(0.3, .3)">
 <path d="M250 30c77 0 140 63 140 140 0 24-6 46-16 65l-111 227c-2 5-7 8-13 8s-11-3-13-8l-111-227c-10-19-16-41-16-65 0-77 63-140 140-140z"/>
  <circle stroke="" fill="" cx="250" cy="170" r="100" />
<g transform="translate(175.000000,250.000000) scale(0.010000,-0.010000)"
fill="#000000" stroke="none">
<path d="M3662 15985 c-78 -18 -209 -87 -270 -140 -62 -56 -133 -152 -166
-228 -49 -110 -56 -178 -56 -547 l0 -340 -993 0 c-961 0 -996 -1 -1073 -20
-120 -30 -198 -74 -285 -160 -61 -60 -84 -92 -117 -160 -22 -47 -46 -110 -53
-140 -12 -46 -14 -1119 -14 -6510 l0 -6455 23 -75 c55 -176 162 -305 312 -378
161 -79 -318 -72 5032 -72 l4800 0 51 -38 c240 -176 581 -348 882 -445 642
-207 1337 -202 1977 14 472 159 867 406 1229 768 214 214 357 399 508 654 446
758 547 1703 274 2552 -97 301 -269 642 -445 882 l-38 51 -2 4513 -3 4514 -27
81 c-65 190 -195 321 -390 392 l-73 27 -1022 3 -1022 3 -3 382 c-4 362 -5 385
-25 440 -77 203 -216 346 -405 415 l-73 27 -421 3 c-479 3 -500 1 -638 -70
-114 -59 -217 -164 -274 -278 -66 -133 -72 -174 -72 -572 l0 -348 -2855 0
-2855 0 0 358 c0 400 -4 433 -68 562 -51 105 -177 231 -282 282 -132 65 -157
68 -610 67 -294 -1 -420 -4 -458 -14z m778 -1575 l0 -950 -315 0 -315 0 0 950
0 950 315 0 315 0 0 -950z m7620 0 l0 -950 -315 0 -315 0 0 950 0 950 315 0
315 0 0 -950z m-8888 -692 c4 -324 7 -380 22 -428 56 -172 184 -324 336 -399
138 -68 187 -73 638 -69 l387 3 80 28 c201 71 351 221 417 417 21 62 23 85 26
443 l3 377 2854 0 2854 0 3 -372 3 -373 31 -85 c16 -47 47 -111 68 -142 81
-123 226 -230 371 -275 54 -16 101 -18 480 -18 379 0 426 2 479 18 231 71 400
243 456 463 18 70 20 111 20 431 l0 353 950 0 950 0 0 -1105 0 -1105 -6665 0
-6665 0 0 1105 0 1105 949 0 949 0 4 -372z m11428 -5183 l0 -2694 -77 55
c-548 393 -1257 607 -1929 580 -1036 -40 -1971 -561 -2538 -1416 -146 -219
-272 -469 -352 -697 -16 -46 -32 -83 -35 -83 -3 0 -11 24 -18 53 -8 28 -110
414 -228 856 -117 442 -210 807 -206 811 4 4 431 351 948 770 517 420 942 765
944 767 2 1 2 5 0 6 -2 2 -552 33 -1222 69 -670 36 -1220 68 -1223 71 -3 2
-202 516 -442 1140 -241 625 -440 1138 -442 1141 -3 2 -203 -509 -444 -1137
-242 -628 -441 -1143 -442 -1145 -2 -4 -2334 -132 -2401 -132 -24 0 -43 -3
-43 -8 0 -4 425 -353 945 -776 520 -422 945 -774 945 -782 0 -8 -140 -539
-310 -1181 -171 -642 -309 -1170 -308 -1175 2 -4 465 292 1029 657 l1027 665
888 -575 c877 -568 889 -576 888 -608 0 -18 -6 -79 -12 -137 -48 -405 -8 -833
115 -1240 94 -312 253 -639 437 -897 l65 -93 -4444 0 -4445 0 0 4915 0 4915
6665 0 6665 0 0 -2695z m-6600 -916 l212 -556 77 -6 c42 -3 313 -18 604 -34
290 -15 527 -30 526 -33 0 -3 -209 -174 -464 -380 -256 -206 -465 -382 -465
-390 0 -8 68 -269 150 -580 83 -310 149 -567 148 -572 -2 -4 -228 139 -503
317 -275 179 -503 325 -507 325 -6 0 -441 -279 -877 -564 -73 -48 -135 -86
-136 -84 -2 2 67 264 151 583 147 553 154 580 137 596 -10 10 -218 180 -463
379 -245 198 -446 364 -448 368 -1 4 233 20 520 35 731 39 678 33 693 71 6 17
104 270 216 563 112 293 207 529 210 525 3 -4 102 -257 219 -563z m5065 -1808
c436 -65 850 -243 1202 -518 452 -353 787 -886 908 -1448 69 -316 76 -683 19
-995 -120 -668 -509 -1263 -1079 -1649 -307 -208 -624 -335 -1000 -402 -154
-27 -521 -38 -688 -19 -593 65 -1152 341 -1560 770 -183 193 -311 374 -433
615 -129 255 -210 515 -250 800 -22 155 -25 488 -6 635 98 744 488 1383 1102
1802 201 138 412 239 655 317 187 60 334 88 600 115 89 9 406 -5 530 -23z"/>
<path d="M13205 3765 c-467 -547 -855 -993 -862 -990 -10 3 -296 219 -860 647
l-182 138 -191 -256 c-105 -141 -188 -260 -183 -264 23 -21 1474 -1130 1481
-1132 9 -3 2133 2434 2129 2443 -4 11 -467 409 -475 408 -4 0 -389 -448 -857
-994z"/>
</g>
</g>
</svg>
