<?xml version="1.0" standalone="no"?>
<!DOCTYPE svg PUBLIC "-//W3C//DTD SVG 20010904//EN"
 "http://www.w3.org/TR/2001/REC-SVG-20010904/DTD/svg10.dtd">
<svg version="1.0" xmlns="http://www.w3.org/2000/svg" x="0px" y="0px"
     viewBox="0 0 368.6 184.3" style="enable-background:new 0 0 184.3 184.3;" xml:space="preserve"
 preserveAspectRatio="xMidYMid meet">
<metadata>
Created by potrace 1.15, written by Peter Selinger 2001-2017
</metadata>
<g stroke="" fill="yellow" transform="translate(50,0.00) scale(0.3, .3)">
 <path d="M250 30c77 0 140 63 140 140 0 24-6 46-16 65l-111 227c-2 5-7 8-13 8s-11-3-13-8l-111-227c-10-19-16-41-16-65 0-77 63-140 140-140z"/>
  <circle stroke="" fill="" cx="250" cy="170" r="100" />
<g transform="translate(160.000000,260.000000) scale(0.0300000,-0.0300000)"
fill="#000000" stroke="none">
<path d="M3665 5191 c-27 -13 -232 -212 -633 -613 l-593 -595 38 -28 c62 -48
122 -113 154 -171 17 -30 34 -54 38 -54 3 0 243 236 531 525 289 289 529 525
535 525 5 0 516 -506 1135 -1124 1020 -1019 1129 -1126 1168 -1136 73 -19 142
5 188 65 35 46 43 118 19 166 -9 19 -285 303 -613 632 l-597 597 -2 410 c-3
387 -4 413 -23 449 -23 47 -77 82 -134 88 -64 8 -137 -33 -165 -90 -19 -40
-21 -60 -21 -265 0 -121 -4 -223 -8 -226 -5 -3 -195 182 -423 410 -228 229
-431 424 -451 435 -47 24 -92 24 -143 0z"/>
<path d="M3665 4491 c-27 -13 -190 -169 -489 -469 l-449 -450 -2 -114 c-1 -80
-7 -130 -20 -171 l-19 -58 40 -32 c100 -82 211 -221 272 -342 46 -92 78 -212
92 -349 17 -166 -30 -291 -151 -399 -60 -53 -156 -107 -262 -148 -42 -17 -56
-27 -52 -38 21 -70 38 -188 42 -302 5 -122 3 -145 -16 -210 -29 -96 -61 -150
-133 -225 -32 -33 -58 -64 -58 -68 0 -5 147 -6 328 -4 l327 5 66 27 c111 45
195 128 241 237 22 53 23 65 28 469 l5 415 27 57 c49 106 155 182 254 182 99
0 207 -76 258 -184 20 -43 21 -64 26 -460 6 -448 6 -445 65 -546 37 -63 126
-139 193 -164 96 -37 189 -42 681 -37 495 4 487 4 585 54 88 46 169 145 202
250 18 53 19 99 19 578 0 472 -2 523 -17 557 -11 23 -373 392 -968 987 -993
993 -969 971 -1050 971 -14 0 -43 -9 -65 -19z"/>
<path d="M1070 3835 c-227 -62 -400 -238 -456 -465 -22 -86 -15 -231 15 -320
41 -120 148 -266 225 -307 33 -17 27 -26 -29 -43 -76 -24 -208 -90 -289 -144
-201 -135 -352 -320 -445 -546 -83 -204 -112 -471 -62 -574 88 -179 369 -304
816 -362 160 -21 544 -24 690 -6 484 62 766 182 859 366 28 56 29 58 23 189
-8 204 -67 393 -175 567 -47 76 -136 189 -176 223 -11 11 -37 33 -56 51 -98
90 -300 207 -407 235 -23 6 -44 15 -47 19 -3 5 18 26 45 48 115 90 200 243
217 389 17 153 -9 276 -86 403 -72 121 -170 200 -309 254 -97 37 -262 48 -353
23z"/>
<path d="M2030 3821 c-57 -12 -126 -50 -178 -96 l-47 -43 17 -29 c167 -271
168 -580 2 -823 -17 -25 -34 -50 -38 -57 -4 -7 12 -21 43 -37 213 -106 444
-332 551 -538 30 -57 34 -58 156 -22 123 35 208 80 259 136 51 56 59 93 45
202 -24 190 -117 361 -264 484 -50 42 -215 132 -242 132 -22 0 -17 10 35 65
73 77 103 142 108 240 5 96 -9 149 -61 229 -41 61 -106 113 -176 140 -50 20
-158 29 -210 17z"/>
</g>
</g>
</svg>
