<?xml version="1.0" standalone="no"?>
<!DOCTYPE svg PUBLIC "-//W3C//DTD SVG 20010904//EN"
 "http://www.w3.org/TR/2001/REC-SVG-20010904/DTD/svg10.dtd">
<svg version="1.0" xmlns="http://www.w3.org/2000/svg" x="0px" y="0px"
     viewBox="0 0 368.6 184.3" style="enable-background:new 0 0 184.3 184.3;" xml:space="preserve"
 preserveAspectRatio="xMidYMid meet">
<metadata>
Created by potrace 1.15, written by Peter Selinger 2001-2017
</metadata>
<g stroke="" fill="yellow" transform="translate(50,0.00) scale(0.3, .3)">
 <path d="M250 30c77 0 140 63 140 140 0 24-6 46-16 65l-111 227c-2 5-7 8-13 8s-11-3-13-8l-111-227c-10-19-16-41-16-65 0-77 63-140 140-140z"/>
  <circle stroke="" fill="" cx="250" cy="170" r="100" />
<g transform="translate(155.000000,285.000000) scale(0.0500000,-0.0500000)"
fill="#000000" stroke="none">
<path d="M371 4213 c-17 -15 -50 -145 -195 -788 -160 -706 -174 -772 -160
-792 9 -15 24 -23 43 -23 34 0 49 15 57 58 4 18 10 32 13 32 4 0 45 -91 91
-202 l85 -201 162 -121 162 -121 1 -963 c0 -1041 -2 -1000 54 -1051 39 -36
119 -41 166 -9 71 47 70 42 70 531 l0 437 50 0 50 0 0 -435 c0 -470 1 -475 54
-524 36 -34 118 -40 163 -12 72 45 67 -9 73 828 l5 753 99 -216 c106 -231 123
-254 191 -254 36 0 89 31 106 61 27 51 15 86 -190 533 -110 241 -207 449 -216
463 -31 47 -66 53 -312 53 l-228 0 -134 103 -134 102 -104 250 c-103 248 -136
305 -178 305 -8 0 -15 6 -15 13 0 22 53 252 61 260 4 5 44 -1 90 -12 186 -46
289 -56 579 -55 309 1 366 6 991 89 224 30 491 62 595 71 357 31 773 7 959
-54 l50 -17 42 -148 42 -149 -25 -21 c-16 -15 -61 -109 -132 -279 l-108 -257
-129 -98 -130 -98 -247 -5 c-230 -5 -249 -6 -274 -26 -22 -16 -77 -128 -236
-475 -132 -290 -207 -466 -208 -487 -1 -98 100 -154 180 -99 28 18 50 59 134
242 l101 220 5 -765 c4 -606 8 -770 18 -788 34 -59 134 -81 197 -42 65 40 65
40 65 529 l0 441 55 0 55 0 0 -447 c0 -427 1 -450 20 -480 54 -89 200 -82 244
11 14 31 16 134 16 1003 l1 968 166 125 166 125 64 155 c36 85 71 171 79 189
l15 35 17 -35 c28 -56 102 -51 102 9 0 14 -10 57 -21 96 -12 39 -22 96 -23
127 -1 43 -8 66 -28 95 -18 28 -76 212 -197 629 -172 593 -184 625 -225 625
-40 0 -58 -45 -43 -104 7 -26 6 -28 -15 -22 -13 3 -79 18 -148 33 -119 26
-138 27 -405 28 -314 0 -317 -1 -835 -90 -402 -70 -493 -82 -689 -95 -244 -15
-500 8 -695 65 l-58 17 6 42 c4 22 9 51 12 63 4 14 -2 29 -15 42 -26 26 -42
26 -70 4z"/>
<path d="M2384 3296 c-222 -103 -149 -436 96 -436 195 0 301 225 177 376 -38
46 -118 84 -177 84 -26 0 -66 -10 -96 -24z"/>
<path d="M1280 3157 c-50 -16 -116 -86 -130 -138 -15 -56 -7 -119 17 -132 23
-13 97 -87 110 -111 15 -27 92 -33 147 -12 141 54 179 233 73 340 -61 60 -136
79 -217 53z"/>
<path d="M1787 2946 c-59 -16 -114 -60 -141 -112 -16 -29 -21 -58 -21 -115 0
-66 4 -81 28 -118 96 -145 308 -141 395 8 22 38 27 58 27 116 -1 76 -14 111
-61 159 -61 61 -146 84 -227 62z"/>
<path d="M900 2851 c-86 -28 -141 -74 -181 -151 -19 -36 -24 -61 -24 -120 0
-66 5 -83 31 -130 134 -238 483 -169 520 101 14 102 -48 218 -144 272 -56 31
-152 45 -202 28z"/>
<path d="M2792 2845 c-204 -63 -261 -326 -102 -468 59 -54 102 -70 185 -71 56
0 80 5 121 27 104 53 161 156 152 271 -7 78 -34 132 -94 185 -74 65 -169 85
-262 56z"/>
<path d="M2232 2797 c-27 -12 -56 -64 -84 -151 -11 -34 -29 -73 -39 -87 -24
-35 -24 -34 11 -49 51 -21 83 -69 165 -249 l79 -173 42 89 c45 94 91 144 150
163 l34 12 -21 29 c-75 106 -77 280 -5 390 l26 39 -167 -1 c-102 0 -177 -5
-191 -12z"/>
<path d="M1314 2702 c14 -23 22 -127 14 -178 -9 -56 -37 -124 -65 -156 -13
-14 -11 -17 23 -28 21 -7 56 -30 79 -51 l42 -39 48 106 c47 102 77 139 128
157 22 8 22 18 -4 62 -12 19 -27 57 -33 83 l-12 47 -113 3 c-63 1 -110 -1
-107 -6z"/>
<path d="M1603 2434 c-26 -13 -41 -38 -93 -149 l-62 -134 53 -116 c28 -63 56
-115 60 -115 5 0 9 -8 9 -18 0 -18 215 -500 231 -517 6 -5 9 -2 9 8 0 13 9 17
40 17 l40 0 0 -367 c0 -351 1 -369 20 -401 28 -45 82 -68 130 -53 20 6 47 22
61 37 24 25 24 29 27 229 l3 203 -30 22 c-17 12 -43 42 -58 68 -23 39 -28 58
-27 112 0 57 7 80 57 188 l57 124 1 176 0 177 39 -82 c21 -46 41 -83 43 -83 2
0 27 52 56 115 l52 115 -95 207 c-65 144 -102 214 -121 228 -24 18 -44 20
-248 23 -186 2 -227 0 -254 -14z"/>
<path d="M2407 1115 c-36 -45 -95 -75 -152 -77 -54 -3 -58 -17 -16 -59 23 -23
38 -29 71 -29 86 0 134 56 128 150 l-3 50 -28 -35z"/>
<path d="M1771 1109 c-32 -41 -96 -71 -153 -72 l-48 -1 0 -184 c0 -206 6 -228
68 -258 70 -33 152 14 166 93 8 54 8 453 -1 452 -5 0 -19 -14 -32 -30z"/>
</g>
</g>
</svg>
