<?xml version="1.0" standalone="no"?>
<!DOCTYPE svg PUBLIC "-//W3C//DTD SVG 20010904//EN"
 "http://www.w3.org/TR/2001/REC-SVG-20010904/DTD/svg10.dtd">
<svg version="1.0" xmlns="http://www.w3.org/2000/svg" x="0px" y="0px"
     viewBox="0 0 368.6 184.3" style="enable-background:new 0 0 184.3 184.3;" xml:space="preserve"
 preserveAspectRatio="xMidYMid meet">
<metadata>
Created by potrace 1.15, written by Peter Selinger 2001-2017
</metadata>
<g stroke="" fill="yellow" transform="translate(50,0.00) scale(0.3, .3)">
 <path d="M250 30c77 0 140 63 140 140 0 24-6 46-16 65l-111 227c-2 5-7 8-13 8s-11-3-13-8l-111-227c-10-19-16-41-16-65 0-77 63-140 140-140z"/>
  <circle stroke="" fill="" cx="250" cy="170" r="100" />
<g transform="translate(175.000000,230.000000) scale(0.0750000,-0.0750000)"
fill="#000000" stroke="none">
<path d="M915 1761 c-136 -63 -166 -232 -61 -337 84 -84 204 -84 292 1 80 77
85 198 11 282 -61 69 -161 92 -242 54z"/>
<path d="M335 1369 c-125 -29 -193 -184 -132 -300 85 -161 332 -137 383 37 46
158 -90 300 -251 263z"/>
<path d="M1564 1371 c-52 -13 -103 -50 -128 -94 -35 -60 -41 -106 -22 -170 51
-175 297 -200 383 -38 55 104 3 251 -101 291 -37 13 -100 19 -132 11z"/>
<path d="M882 1265 c-68 -32 -139 -105 -180 -186 -33 -66 -72 -201 -72 -249
l0 -27 78 20 c66 18 108 20 292 20 184 0 226 -2 293 -20 l77 -20 0 27 c0 48
-39 183 -72 247 -90 181 -264 259 -416 188z"/>
<path d="M1532 876 c-44 -15 -122 -63 -122 -76 0 -4 33 -23 74 -43 116 -58
186 -139 186 -214 -1 -45 -33 -105 -82 -149 -46 -43 -153 -99 -207 -110 -17
-4 -34 -10 -36 -14 -7 -11 67 -28 172 -40 138 -15 349 12 435 56 27 14 28 18
28 87 -1 204 -101 405 -240 481 -62 34 -145 42 -208 22z"/>
<path d="M293 867 c-155 -58 -272 -269 -273 -494 0 -87 5 -92 126 -123 114
-30 285 -36 404 -16 52 9 98 20 103 25 4 4 -12 13 -35 20 -116 35 -245 127
-274 196 -42 100 25 206 174 278 37 17 69 33 71 34 11 7 -39 48 -84 69 -56 27
-155 32 -212 11z"/>
<path d="M860 774 c-14 -2 -56 -9 -94 -15 -140 -23 -262 -76 -322 -141 -146
-155 138 -318 556 -318 302 0 551 87 590 206 15 46 1 82 -51 128 -61 56 -145
92 -284 122 -67 15 -341 28 -395 18z"/>
</g>
</g>
</svg>
