<?xml version="1.0" standalone="no"?>
<!DOCTYPE svg PUBLIC "-//W3C//DTD SVG 20010904//EN"
 "http://www.w3.org/TR/2001/REC-SVG-20010904/DTD/svg10.dtd">
<svg version="1.0" xmlns="http://www.w3.org/2000/svg" x="0px" y="0px"
     viewBox="0 0 368.6 184.3" style="enable-background:new 0 0 184.3 184.3;" xml:space="preserve"
 preserveAspectRatio="xMidYMid meet">
<metadata>
Created by potrace 1.15, written by Peter Selinger 2001-2017
</metadata>
<g stroke="" fill="yellow" transform="translate(50,0.00) scale(0.3, .3)">
 <path d="M250 30c77 0 140 63 140 140 0 24-6 46-16 65l-111 227c-2 5-7 8-13 8s-11-3-13-8l-111-227c-10-19-16-41-16-65 0-77 63-140 140-140z"/>
  <circle stroke="" fill="" cx="250" cy="170" r="100" />
<g transform="translate(140.000000,280.000000) scale(0.0700000,-0.0700000)"
fill="#000000" stroke="none">
<path d="M855 2653 c-49 -25 -94 -74 -111 -120 -20 -51 -14 -129 13 -175 46
-78 147 -122 230 -99 193 51 216 304 36 395 -41 20 -129 20 -168 -1z m129 -77
c123 -51 89 -236 -44 -236 -132 0 -168 183 -46 236 40 17 49 17 90 0z"/>
<path d="M1932 2649 c-130 -65 -150 -248 -39 -346 131 -115 341 -19 340 156 0
61 -24 120 -65 158 -59 55 -161 69 -236 32z m143 -73 c43 -18 75 -69 75 -120
0 -31 -7 -45 -39 -77 -33 -34 -45 -39 -83 -39 -51 0 -89 24 -113 70 -31 61 -5
132 59 161 50 23 57 23 101 5z"/>
<path d="M786 2150 c-184 -29 -301 -153 -356 -375 -12 -49 -24 -98 -26 -107
-5 -15 -17 -18 -80 -18 l-74 0 0 -40 0 -40 83 0 c94 0 104 -6 132 -74 48 -114
155 -239 238 -276 63 -29 103 -26 139 10 28 29 30 35 26 88 -3 41 -17 84 -50
155 l-47 97 166 0 166 0 -5 -85 c-7 -111 -46 -197 -123 -272 -31 -29 -55 -61
-55 -73 0 -23 16 -41 167 -184 65 -62 120 -106 131 -106 26 0 282 277 282 305
0 12 -29 49 -71 90 -39 39 -74 77 -79 86 -8 14 13 114 46 222 4 14 17 17 68
17 39 0 68 -5 74 -12 6 -7 21 -42 35 -78 13 -36 39 -94 57 -130 34 -67 34 -62
13 -202 -11 -78 48 -181 130 -225 44 -24 160 -24 204 0 138 74 176 258 76 368
-20 22 -54 49 -74 60 -47 23 -79 66 -113 146 -14 34 -26 65 -26 68 0 3 92 5
205 5 113 0 205 -4 205 -9 0 -5 -18 -48 -39 -97 -58 -129 -69 -178 -50 -212 9
-16 31 -33 56 -41 98 -34 177 30 288 232 l70 127 68 0 67 0 0 45 0 45 -58 0
-58 0 -11 94 c-20 169 -107 296 -236 344 -131 49 -445 57 -557 13 -147 -56
-226 -173 -253 -368 l-11 -83 -57 0 -57 0 -4 123 c-4 140 -22 194 -86 260 -47
49 -97 75 -180 92 -87 18 -282 26 -356 15z m359 -101 c142 -44 193 -135 182
-329 -7 -124 -18 -183 -59 -308 -20 -63 -36 -96 -50 -103 -36 -19 -42 12 -43
221 -2 251 -20 325 -80 318 -17 -3 -20 -11 -20 -58 0 -30 4 -71 8 -91 7 -33 5
-37 -15 -43 -38 -10 -328 -7 -328 4 0 5 9 33 21 61 36 93 12 135 -49 84 -70
-58 -82 -204 -24 -285 69 -98 86 -133 90 -186 l4 -54 -33 12 c-47 16 -148 121
-185 193 -51 98 -67 159 -62 236 9 122 96 257 199 310 102 52 308 60 444 18z
m990 11 c109 -11 163 -29 230 -75 64 -44 110 -113 131 -194 22 -88 8 -158 -56
-286 -86 -170 -130 -219 -188 -213 l-32 3 71 140 c86 171 92 191 73 258 -36
128 -53 154 -89 141 -24 -9 -27 -39 -10 -102 8 -33 15 -63 15 -66 0 -3 -97 -6
-215 -6 -165 0 -215 3 -215 13 0 6 5 40 10 75 13 76 2 105 -38 100 -23 -3 -28
-11 -45 -73 -28 -107 -26 -204 8 -295 15 -41 34 -84 41 -95 15 -20 18 -62 8
-89 -11 -29 -51 -18 -84 22 -42 50 -105 184 -120 253 -17 78 -8 210 19 280 25
67 88 142 140 168 38 20 125 39 201 44 25 2 47 4 50 5 3 1 46 -3 95 -8z"/>
<path d="M2172 792 c-128 -138 -145 -162 -136 -186 9 -23 283 -276 299 -276
13 0 241 239 270 284 9 13 13 30 10 38 -3 8 -66 72 -140 141 -96 90 -142 127
-159 127 -18 0 -55 -33 -144 -128z"/>
<path d="M692 877 c-45 -14 -118 -81 -145 -131 -30 -57 -30 -165 0 -221 66
-124 209 -177 328 -121 91 42 147 128 148 226 1 72 -17 124 -62 173 -67 75
-175 105 -269 74z"/>
<path d="M1502 793 c-36 -52 -193 -388 -190 -407 5 -32 57 -36 273 -21 110 8
201 15 202 15 1 0 8 7 17 15 11 12 13 22 6 40 -11 29 -206 331 -234 363 -26
30 -50 28 -74 -5z"/>
</g>
</g>
</svg>
